<?xml version="1.0" encoding="UTF-8" standalone="no"?>
<!-- Created with Inkscape (http://www.inkscape.org/) -->

<svg
   width="80.903831mm"
   height="93.401672mm"
   viewBox="0 0 80.903831 93.401673"
   version="1.1"
   id="svg5"
   inkscape:export-filename="bitmap.png"
   inkscape:export-xdpi="96"
   inkscape:export-ydpi="96"
   sodipodi:docname="Github_logo.svg"
   inkscape:version="1.2.2 (b0a8486541, 2022-12-01)"
   xmlns:inkscape="http://www.inkscape.org/namespaces/inkscape"
   xmlns:sodipodi="http://sodipodi.sourceforge.net/DTD/sodipodi-0.dtd"
   xmlns="http://www.w3.org/2000/svg"
   xmlns:svg="http://www.w3.org/2000/svg">
  <sodipodi:namedview
     id="namedview7"
     pagecolor="#ffffff"
     bordercolor="#000000"
     borderopacity="0.25"
     inkscape:showpageshadow="2"
     inkscape:pageopacity="0.0"
     inkscape:pagecheckerboard="0"
     inkscape:deskcolor="#d1d1d1"
     inkscape:document-units="mm"
     showgrid="false"
     inkscape:zoom="1.8639479"
     inkscape:cx="153.16952"
     inkscape:cy="176.50708"
     inkscape:window-width="1536"
     inkscape:window-height="828"
     inkscape:window-x="0"
     inkscape:window-y="0"
     inkscape:window-maximized="1"
     inkscape:current-layer="layer1" />
  <defs
     id="defs2" />
  <g
     inkscape:label="Capa 1"
     inkscape:groupmode="layer"
     id="layer1"
     transform="translate(-80.428936,-105.32232)">
    <g
       id="g510"
       transform="matrix(0.74541551,0,0,0.69025195,-405.97288,-219.81891)"
       style="fill:#ffffff;fill-opacity:1">
      <path
         d="m 718.87941,568.5645 c -0.056,7.693 -1.428,23.088 0.42,29.398 0.89,3.039 3.484,3.737 3.78,7.56 -0.528,0.273 -0.87,0.458 -1.26,0.84 -15.333,-3.133 -11.99,-21.177 -11.759,-39.058 h -2.1 c 0.267,15.516 4.394,38.794 -12.599,38.638 -0.265,-0.737 -0.081,-0.408 -0.42,-0.84 0.786,-2.718 3.039,-3.783 3.78,-6.72 0.14,-10.078 0.28,-20.16 0.42,-30.238 h -0.42 c -2.938,4.813 -2.019,14.313 -2.52,21.419 -0.076,1.081 0.537,5.588 -0.42,7.14 -1.462,4.409 -8.043,6.69 -13.859,5.46 l -0.42,-1.26 c 7.931,-5.057 6.905,-10.394 6.72,-23.099 h -0.84 c -1.796,1.148 -7.016,0.829 -8.819,0.42 -2.886,-0.655 -4.801,-0.217 -7.14,-1.26 -6.606,-2.947 -7.34,-9.984 -11.339,-15.539 -1.983,-2.754 -7.09,-3.943 -7.56,-7.979 h 0.84 c 7.542,-4.953 15.008,10.432 18.899,13.019 4.48,2.979 11.758,1.045 16.379,0 1.399,-4.281 2.474,-7.472 5.88,-9.659 -0.429,-0.338 -0.115,-0.149 -0.84,-0.42 -2.053,-1.237 -5.467,-0.559 -7.979,-1.26 -5.454,-1.521 -11.233,-3.428 -15.539,-6.3 -14.082,-9.391 -20.764,-41.196 -5.88,-55.017 -0.651,-6.516 -4.164,-22.779 5.04,-22.679 2.799,0.84 5.6,1.68 8.399,2.52 3.836,1.666 6.98,5.524 11.339,6.3 3.233,-2.243 21.232,-3.911 27.718,-2.52 1.963,0.421 9.551,2.251 11.339,1.68 1.078,-0.344 2.412,-1.943 3.36,-2.52 4.741,-2.884 11.474,-6.105 18.059,-5.46 0.691,2.75 1.802,5.957 2.52,9.239 0.85,3.885 -2.158,8.934 -0.42,11.759 0.625,1.763 2.002,2.443 2.94,3.78 1.792,2.555 3.607,6.158 4.62,9.239 5.464,16.619 -1.941,37.834 -11.339,44.097 -4.345,2.896 -10.303,4.395 -15.959,5.88 -2.395,0.629 -7.164,-0.116 -8.399,1.68 8.289,2.978 6.719,18.508 6.72,29.818 v 7.979 c 1.082,3.327 5.526,3.643 6.3,7.14 l -1.26,0.42 c -3.615,2.513 -11.42,-2.268 -12.179,-4.62 -1.686,-1.919 -1.26,-6.048 -1.26,-9.659 0,-6.936 0.444,-14.621 -1.68,-19.319 -0.423,10e-4 -0.843,10e-4 -1.263,10e-4 z"
         clip-rule="evenodd"
         fill-rule="evenodd"
         id="path28"
         style="fill:#ffffff;fill-opacity:1" />
    </g>
  </g>
</svg>
