<?xml version="1.0" encoding="UTF-8" standalone="no"?>
<!-- Created with Inkscape (http://www.inkscape.org/) -->

<svg
   width="79.375mm"
   height="79.375mm"
   viewBox="0 0 79.375 79.375"
   version="1.1"
   id="svg5"
   sodipodi:docname="help.svg"
   xmlns:inkscape="http://www.inkscape.org/namespaces/inkscape"
   xmlns:sodipodi="http://sodipodi.sourceforge.net/DTD/sodipodi-0.dtd"
   xmlns="http://www.w3.org/2000/svg"
   xmlns:svg="http://www.w3.org/2000/svg">
  <sodipodi:namedview
     id="namedview7"
     pagecolor="#ffffff"
     bordercolor="#000000"
     borderopacity="0.25"
     inkscape:showpageshadow="2"
     inkscape:pageopacity="0.0"
     inkscape:pagecheckerboard="0"
     inkscape:deskcolor="#d1d1d1"
     inkscape:document-units="mm"
     showgrid="false" />
  <defs
     id="defs2" />
  <g
     inkscape:label="Capa 1"
     inkscape:groupmode="layer"
     id="layer1"
     transform="translate(-42.912804,-73.154446)">
    <g
       id="g8936"
       transform="matrix(0.26458333,0,0,0.26458333,3.9502607,1.4682377)">
      <circle
         cx="297.26001"
         cy="420.94"
         r="150"
         fill="#00A995"
         id="circle2"
         style="fill:#ffffff;fill-opacity:1" />
      <path
         d="m 297.82,270.95 v 299.99 c 82.587,-0.3 149.44,-67.335 149.44,-149.99 0,-82.657 -66.858,-149.69 -149.44,-149.99 z"
         fill="#00A99D"
         id="path4"
         style="fill:#f7f7f7;fill-opacity:1" />
      <path
         d="m 238.17,380.46 c 0,-7.64 2.452,-15.382 7.359,-23.223 4.904,-7.842 12.064,-14.336 21.475,-19.484 9.41,-5.146 20.389,-7.722 32.936,-7.722 11.66,0 21.957,2.153 30.885,6.455 8.927,4.304 15.822,10.155 20.69,17.554 4.865,7.401 7.298,15.442 7.298,24.128 0,6.837 -1.387,12.83 -4.161,17.976 -2.775,5.148 -6.075,9.591 -9.894,13.331 -3.821,3.74 -10.678,10.035 -20.57,18.88 -2.734,2.495 -4.927,4.687 -6.575,6.575 -1.648,1.891 -2.875,3.619 -3.679,5.188 -0.806,1.567 -1.43,3.137 -1.87,4.704 -0.443,1.569 -1.107,4.324 -1.991,8.265 -1.528,8.365 -6.313,12.547 -14.355,12.547 -4.184,0 -7.703,-1.367 -10.557,-4.102 -2.856,-2.733 -4.283,-6.796 -4.283,-12.186 0,-6.756 1.044,-12.607 3.137,-17.554 2.09,-4.946 4.865,-9.29 8.324,-13.029 3.458,-3.74 8.123,-8.183 13.995,-13.331 5.146,-4.503 8.867,-7.902 11.16,-10.194 2.291,-2.292 4.222,-4.845 5.79,-7.661 1.568,-2.814 2.353,-5.87 2.353,-9.168 0,-6.434 -2.394,-11.863 -7.178,-16.287 -4.787,-4.422 -10.96,-6.635 -18.519,-6.635 -8.849,0 -15.364,2.232 -19.545,6.696 -4.183,4.463 -7.721,11.039 -10.617,19.725 -2.735,9.09 -7.923,13.632 -15.563,13.632 -4.505,0 -8.305,-1.587 -11.401,-4.765 -3.097,-3.175 -4.644,-6.614 -4.644,-10.315 z m 58.874,132.22 c -4.906,0 -9.19,-1.589 -12.848,-4.766 -3.661,-3.177 -5.489,-7.618 -5.489,-13.331 0,-5.066 1.768,-9.329 5.308,-12.788 3.538,-3.457 7.881,-5.188 13.029,-5.188 5.067,0 9.329,1.73 12.789,5.188 3.457,3.459 5.188,7.722 5.188,12.788 0,5.632 -1.811,10.055 -5.429,13.271 -3.62,3.216 -7.804,4.826 -12.548,4.826 z"
         fill="#ffffff"
         id="path6"
         style="fill:#393939;fill-opacity:1" />
    </g>
  </g>
</svg>
