<?xml version='1.0' encoding='utf-8'?>
<svg xmlns="http://www.w3.org/2000/svg" enable-background="new 0 0 76.207 100" viewBox="0 0 76.207 100"> <path d="m50,100c-27.57,0-50-22.43-50-50s22.43-50 50-50c4.801,0 9.575.691 14.188,2.054l12.019,3.552-12.019,3.552c-17.96,5.307-30.504,22.102-30.504,40.842s12.544,35.533 30.503,40.84l12.015,3.549-12.014,3.555c-4.614,1.364-9.387,2.056-14.188,2.056zm0-92.593c-23.486,0-42.592,19.108-42.592,42.593s19.106,42.593 42.592,42.593h.13c-14.488-8.958-23.853-25.05-23.853-42.593s9.365-33.633 23.851-42.593h-.128z"/> </svg>